<mxfile host="app.diagrams.net" agent="Mozilla/5.0 (Macintosh; Intel Mac OS X 10_15_7) AppleWebKit/537.36 (KHTML, like Gecko) Chrome/127.0.0.0 Safari/537.36" version="24.7.7">
  <diagram name="第 1 页" id="3D8wCCYfvHKOLse7FX9S">
    <mxGraphModel dx="1026" dy="651" grid="1" gridSize="10" guides="1" tooltips="1" connect="1" arrows="1" fold="1" page="1" pageScale="1" pageWidth="827" pageHeight="1169" math="0" shadow="0">
      <root>
        <mxCell id="0" />
        <mxCell id="1" parent="0" />
        <mxCell id="6Ara_hWOSPcM3JgTyZOW-5" value="" style="edgeStyle=orthogonalEdgeStyle;rounded=0;orthogonalLoop=1;jettySize=auto;html=1;" edge="1" parent="1" source="6Ara_hWOSPcM3JgTyZOW-1" target="6Ara_hWOSPcM3JgTyZOW-4">
          <mxGeometry relative="1" as="geometry" />
        </mxCell>
        <mxCell id="6Ara_hWOSPcM3JgTyZOW-1" value="创建Pai服务接口" style="rounded=1;whiteSpace=wrap;html=1;" vertex="1" parent="1">
          <mxGeometry x="294" y="100" width="116" height="60" as="geometry" />
        </mxCell>
        <mxCell id="6Ara_hWOSPcM3JgTyZOW-7" value="" style="edgeStyle=orthogonalEdgeStyle;rounded=0;orthogonalLoop=1;jettySize=auto;html=1;" edge="1" parent="1" source="6Ara_hWOSPcM3JgTyZOW-4" target="6Ara_hWOSPcM3JgTyZOW-6">
          <mxGeometry relative="1" as="geometry" />
        </mxCell>
        <mxCell id="6Ara_hWOSPcM3JgTyZOW-8" value="校验不通过" style="edgeLabel;html=1;align=center;verticalAlign=middle;resizable=0;points=[];" vertex="1" connectable="0" parent="6Ara_hWOSPcM3JgTyZOW-7">
          <mxGeometry x="-0.1628" y="-1" relative="1" as="geometry">
            <mxPoint as="offset" />
          </mxGeometry>
        </mxCell>
        <mxCell id="6Ara_hWOSPcM3JgTyZOW-10" value="" style="edgeStyle=orthogonalEdgeStyle;rounded=0;orthogonalLoop=1;jettySize=auto;html=1;" edge="1" parent="1" source="6Ara_hWOSPcM3JgTyZOW-4" target="6Ara_hWOSPcM3JgTyZOW-9">
          <mxGeometry relative="1" as="geometry" />
        </mxCell>
        <mxCell id="6Ara_hWOSPcM3JgTyZOW-11" value="通过" style="edgeLabel;html=1;align=center;verticalAlign=middle;resizable=0;points=[];" vertex="1" connectable="0" parent="6Ara_hWOSPcM3JgTyZOW-10">
          <mxGeometry x="-0.25" y="3" relative="1" as="geometry">
            <mxPoint as="offset" />
          </mxGeometry>
        </mxCell>
        <mxCell id="6Ara_hWOSPcM3JgTyZOW-4" value="参数校验" style="rhombus;whiteSpace=wrap;html=1;rounded=1;" vertex="1" parent="1">
          <mxGeometry x="286" y="200" width="132" height="60" as="geometry" />
        </mxCell>
        <mxCell id="6Ara_hWOSPcM3JgTyZOW-6" value="返回失败信息" style="whiteSpace=wrap;html=1;rounded=1;" vertex="1" parent="1">
          <mxGeometry x="90" y="205" width="90" height="50" as="geometry" />
        </mxCell>
        <mxCell id="6Ara_hWOSPcM3JgTyZOW-15" value="" style="edgeStyle=orthogonalEdgeStyle;rounded=0;orthogonalLoop=1;jettySize=auto;html=1;" edge="1" parent="1" source="6Ara_hWOSPcM3JgTyZOW-9" target="6Ara_hWOSPcM3JgTyZOW-16">
          <mxGeometry relative="1" as="geometry">
            <mxPoint x="352" y="420" as="targetPoint" />
          </mxGeometry>
        </mxCell>
        <mxCell id="6Ara_hWOSPcM3JgTyZOW-9" value="参数二次封装" style="whiteSpace=wrap;html=1;rounded=1;" vertex="1" parent="1">
          <mxGeometry x="298" y="320" width="108" height="40" as="geometry" />
        </mxCell>
        <mxCell id="6Ara_hWOSPcM3JgTyZOW-18" value="" style="edgeStyle=orthogonalEdgeStyle;rounded=0;orthogonalLoop=1;jettySize=auto;html=1;" edge="1" parent="1" source="6Ara_hWOSPcM3JgTyZOW-16" target="6Ara_hWOSPcM3JgTyZOW-17">
          <mxGeometry relative="1" as="geometry" />
        </mxCell>
        <mxCell id="6Ara_hWOSPcM3JgTyZOW-19" value="失败" style="edgeLabel;html=1;align=center;verticalAlign=middle;resizable=0;points=[];" vertex="1" connectable="0" parent="6Ara_hWOSPcM3JgTyZOW-18">
          <mxGeometry x="-0.125" y="-1" relative="1" as="geometry">
            <mxPoint as="offset" />
          </mxGeometry>
        </mxCell>
        <mxCell id="6Ara_hWOSPcM3JgTyZOW-44" value="" style="edgeStyle=orthogonalEdgeStyle;rounded=0;orthogonalLoop=1;jettySize=auto;html=1;" edge="1" parent="1" source="6Ara_hWOSPcM3JgTyZOW-16" target="6Ara_hWOSPcM3JgTyZOW-43">
          <mxGeometry relative="1" as="geometry" />
        </mxCell>
        <mxCell id="6Ara_hWOSPcM3JgTyZOW-16" value="调用阿里云异步创建服务sdk" style="shape=process;whiteSpace=wrap;html=1;backgroundOutline=1;" vertex="1" parent="1">
          <mxGeometry x="292" y="400" width="120" height="60" as="geometry" />
        </mxCell>
        <mxCell id="6Ara_hWOSPcM3JgTyZOW-17" value="返回失败信息" style="whiteSpace=wrap;html=1;" vertex="1" parent="1">
          <mxGeometry x="90" y="410" width="92" height="40" as="geometry" />
        </mxCell>
        <mxCell id="6Ara_hWOSPcM3JgTyZOW-24" value="" style="edgeStyle=orthogonalEdgeStyle;rounded=0;orthogonalLoop=1;jettySize=auto;html=1;" edge="1" parent="1" source="6Ara_hWOSPcM3JgTyZOW-20" target="6Ara_hWOSPcM3JgTyZOW-23">
          <mxGeometry relative="1" as="geometry" />
        </mxCell>
        <mxCell id="6Ara_hWOSPcM3JgTyZOW-25" value="失败" style="edgeLabel;html=1;align=center;verticalAlign=middle;resizable=0;points=[];" vertex="1" connectable="0" parent="6Ara_hWOSPcM3JgTyZOW-24">
          <mxGeometry x="0.075" y="4" relative="1" as="geometry">
            <mxPoint as="offset" />
          </mxGeometry>
        </mxCell>
        <mxCell id="6Ara_hWOSPcM3JgTyZOW-31" value="" style="edgeStyle=orthogonalEdgeStyle;rounded=0;orthogonalLoop=1;jettySize=auto;html=1;" edge="1" parent="1" source="6Ara_hWOSPcM3JgTyZOW-20" target="6Ara_hWOSPcM3JgTyZOW-30">
          <mxGeometry relative="1" as="geometry" />
        </mxCell>
        <mxCell id="6Ara_hWOSPcM3JgTyZOW-20" value="调用阿里云异步启动服务sdk" style="rounded=1;whiteSpace=wrap;html=1;" vertex="1" parent="1">
          <mxGeometry x="650" y="525" width="120" height="60" as="geometry" />
        </mxCell>
        <mxCell id="6Ara_hWOSPcM3JgTyZOW-23" value="&lt;b&gt;确认如何处理&lt;/b&gt;" style="whiteSpace=wrap;html=1;rounded=1;" vertex="1" parent="1">
          <mxGeometry x="450" y="525" width="120" height="60" as="geometry" />
        </mxCell>
        <mxCell id="6Ara_hWOSPcM3JgTyZOW-33" value="" style="edgeStyle=orthogonalEdgeStyle;rounded=0;orthogonalLoop=1;jettySize=auto;html=1;" edge="1" parent="1" source="6Ara_hWOSPcM3JgTyZOW-30" target="6Ara_hWOSPcM3JgTyZOW-32">
          <mxGeometry relative="1" as="geometry" />
        </mxCell>
        <mxCell id="6Ara_hWOSPcM3JgTyZOW-34" value="服务启动失败" style="edgeLabel;html=1;align=center;verticalAlign=middle;resizable=0;points=[];" vertex="1" connectable="0" parent="6Ara_hWOSPcM3JgTyZOW-33">
          <mxGeometry x="0.025" y="2" relative="1" as="geometry">
            <mxPoint as="offset" />
          </mxGeometry>
        </mxCell>
        <mxCell id="6Ara_hWOSPcM3JgTyZOW-38" value="" style="edgeStyle=orthogonalEdgeStyle;rounded=0;orthogonalLoop=1;jettySize=auto;html=1;" edge="1" parent="1" source="6Ara_hWOSPcM3JgTyZOW-30" target="6Ara_hWOSPcM3JgTyZOW-37">
          <mxGeometry relative="1" as="geometry" />
        </mxCell>
        <mxCell id="6Ara_hWOSPcM3JgTyZOW-39" value="成功" style="edgeLabel;html=1;align=center;verticalAlign=middle;resizable=0;points=[];" vertex="1" connectable="0" parent="6Ara_hWOSPcM3JgTyZOW-38">
          <mxGeometry x="-0.425" y="-3" relative="1" as="geometry">
            <mxPoint as="offset" />
          </mxGeometry>
        </mxCell>
        <mxCell id="6Ara_hWOSPcM3JgTyZOW-30" value="调用阿里云查询服务信息接口" style="whiteSpace=wrap;html=1;rounded=1;" vertex="1" parent="1">
          <mxGeometry x="650" y="630" width="120" height="60" as="geometry" />
        </mxCell>
        <mxCell id="6Ara_hWOSPcM3JgTyZOW-32" value="返回失败信息" style="whiteSpace=wrap;html=1;rounded=1;" vertex="1" parent="1">
          <mxGeometry x="450" y="630" width="120" height="60" as="geometry" />
        </mxCell>
        <mxCell id="6Ara_hWOSPcM3JgTyZOW-35" value="" style="curved=1;endArrow=classic;html=1;rounded=0;entryX=1;entryY=0.5;entryDx=0;entryDy=0;" edge="1" parent="1" source="6Ara_hWOSPcM3JgTyZOW-30" target="6Ara_hWOSPcM3JgTyZOW-30">
          <mxGeometry width="50" height="50" relative="1" as="geometry">
            <mxPoint x="748" y="540" as="sourcePoint" />
            <mxPoint x="798" y="490" as="targetPoint" />
            <Array as="points">
              <mxPoint x="838" y="590" />
              <mxPoint x="888" y="670" />
            </Array>
          </mxGeometry>
        </mxCell>
        <mxCell id="6Ara_hWOSPcM3JgTyZOW-36" value="未完成轮训调用" style="edgeLabel;html=1;align=center;verticalAlign=middle;resizable=0;points=[];" vertex="1" connectable="0" parent="6Ara_hWOSPcM3JgTyZOW-35">
          <mxGeometry x="-0.3761" y="-2" relative="1" as="geometry">
            <mxPoint as="offset" />
          </mxGeometry>
        </mxCell>
        <mxCell id="6Ara_hWOSPcM3JgTyZOW-37" value="写入Apollo" style="whiteSpace=wrap;html=1;rounded=1;" vertex="1" parent="1">
          <mxGeometry x="656" y="740" width="108" height="40" as="geometry" />
        </mxCell>
        <mxCell id="6Ara_hWOSPcM3JgTyZOW-43" value="返回创建成功结果" style="rounded=0;whiteSpace=wrap;html=1;" vertex="1" parent="1">
          <mxGeometry x="292" y="555" width="120" height="60" as="geometry" />
        </mxCell>
        <mxCell id="6Ara_hWOSPcM3JgTyZOW-45" value="" style="endArrow=none;dashed=1;html=1;dashPattern=1 3;strokeWidth=2;rounded=0;entryX=0;entryY=0.25;entryDx=0;entryDy=0;" edge="1" parent="1" target="6Ara_hWOSPcM3JgTyZOW-20">
          <mxGeometry width="50" height="50" relative="1" as="geometry">
            <mxPoint x="360" y="490" as="sourcePoint" />
            <mxPoint x="440" y="670" as="targetPoint" />
            <Array as="points">
              <mxPoint x="510" y="490" />
            </Array>
          </mxGeometry>
        </mxCell>
        <mxCell id="6Ara_hWOSPcM3JgTyZOW-46" value="异步逻辑" style="edgeLabel;html=1;align=center;verticalAlign=middle;resizable=0;points=[];" vertex="1" connectable="0" parent="6Ara_hWOSPcM3JgTyZOW-45">
          <mxGeometry x="-0.3236" y="3" relative="1" as="geometry">
            <mxPoint as="offset" />
          </mxGeometry>
        </mxCell>
      </root>
    </mxGraphModel>
  </diagram>
</mxfile>
